<svg xmlns="http://www.w3.org/2000/svg" viewBox="0 0 1000 1000">
	<path fill="#1a5677" d="M0 0h1000v1000H0z" />
	<path fill="white"
		d="M500 826.8c-180.2 0-326.8-146.6-326.8-326.8S319.8 173.2 500 173.2 826.8 319.8 826.8 500 680.2 826.8 500 826.8zm0-651.2c-178.9 0-324.4 145.5-324.4 324.4S321.1 824.4 500 824.4 824.4 678.9 824.4 500 678.9 175.6 500 175.6z" />
	<path fill="white"
		d="M528.6 776.6c-.6 0-1.2-.5-1.2-1.1-.1-.7.4-1.3 1.1-1.3 30.5-3.2 60.2-11.4 88.1-24.4.6-.3 1.3 0 1.6.6.3.6 0 1.3-.6 1.6-28.2 13.2-58.1 21.5-88.9 24.6h-.1zm-73.6-2.3h-.2c-2.6-.4-5.2-.9-7.8-1.4-15.6-3-31-7.4-45.7-13-.6-.2-.9-.9-.7-1.6s.9-.9 1.6-.7c14.6 5.5 29.9 9.9 45.3 12.9 2.6.5 5.2 1 7.8 1.4.7.1 1.1.7 1 1.4-.2.6-.7 1-1.3 1zm-182.2-115c-.4 0-.8-.2-1-.5-17.7-25.5-31-53.6-39.4-83.4-.2-.6.2-1.3.8-1.5.6-.2 1.3.2 1.5.8 8.3 29.5 21.5 57.3 39.1 82.6.4.6.2 1.3-.3 1.7-.2.2-.4.3-.7.3zm465.4-17.1c-.2 0-.4-.1-.6-.2-.6-.3-.8-1.1-.4-1.7 9.3-15.8 17.1-32.6 23.1-49.9.2-.6.9-1 1.6-.8.6.2 1 .9.8 1.6-6.1 17.5-13.9 34.4-23.3 50.4-.4.4-.8.6-1.2.6zM776.1 520c-.8-.1-1.3-.6-1.2-1.3.4-6.3.7-12.7.7-19 0-24.3-3.2-48.5-9.6-72-.2-.7.2-1.3.9-1.5.7-.2 1.3.2 1.5.9 6.5 23.7 9.7 48.1 9.7 72.6 0 6.3-.2 12.8-.7 19.2-.1.6-.6 1.1-1.3 1.1zm-21-126.2c-.5 0-.9-.3-1.1-.7-7.1-16.9-16-33.1-26.3-48.3-.4-.6-.2-1.3.3-1.7.6-.4 1.3-.2 1.7.3 10.4 15.3 19.4 31.7 26.6 48.7.3.6 0 1.3-.7 1.6-.2.1-.4.1-.5.1zM385.3 249.4c-.5 0-.9-.3-1.1-.7-.3-.6 0-1.3.6-1.6 16.9-7.7 34.5-13.7 52.5-17.9.7-.2 1.3.3 1.5.9.2.7-.3 1.3-.9 1.5-17.8 4.1-35.4 10.1-52.1 17.7-.2 0-.4.1-.5.1zM606.7 701.3zm104.6-114.7c-.2 0-.3 0-.5-.1-.6-.3-.9-1-.7-1.6 11-27.2 16.6-55.9 16.6-85.1 0-8.6-.5-17.2-1.5-25.7-.1-.7.4-1.3 1.1-1.4.7-.1 1.3.4 1.4 1.1 1 8.6 1.5 17.3 1.5 26 0 29.6-5.6 58.5-16.7 86.1-.3.4-.7.7-1.2.7zm-431.4-26c-.5 0-1-.4-1.2-.9-5.2-19.4-7.9-39.4-7.9-59.5 0-2.8.1-5.6.2-8.4 0-.7.6-1.3 1.3-1.2.7 0 1.2.6 1.2 1.3-.1 2.8-.2 5.5-.2 8.3 0 19.9 2.6 39.7 7.8 58.8.2.6-.2 1.3-.9 1.5-.1.1-.2.1-.3.1zm436.9-129.8c-.5 0-1-.3-1.2-.8-4.1-12.5-9.3-24.7-15.5-36.4-4.4-8.3-9.4-16.4-14.7-24-.4-.6-.3-1.3.3-1.7.6-.4 1.3-.3 1.7.3 5.4 7.7 10.4 15.9 14.9 24.3 6.3 11.8 11.5 24.2 15.7 36.8.2.6-.1 1.3-.8 1.5h-.4zm-423.6-25.5c-.2 0-.3 0-.5-.1-.6-.3-.9-1-.6-1.6 9.7-20.8 22.3-40 37.6-57 .5-.5 1.2-.5 1.7-.1.5.5.5 1.2.1 1.7-15.1 16.8-27.7 35.8-37.2 56.4-.2.4-.6.7-1.1.7zM620.9 308c-.2 0-.4-.1-.6-.2-19.2-12-40.1-21-62-26.9-.7-.2-1-.8-.9-1.5s.8-1 1.5-.9c22.2 5.9 43.3 15 62.7 27.1.6.4.7 1.1.4 1.7-.3.5-.7.7-1.1.7zM342.3 416.4c-.2 0-.4 0-.6-.1-.6-.3-.8-1.1-.5-1.7 6.3-11.7 14-22.8 22.8-32.9 20.9-24 47.7-42.1 77.7-52.3.6-.2 1.3.1 1.5.8.2.6-.1 1.3-.8 1.5-29.5 10.1-56 27.9-76.6 51.6-8.7 10-16.2 20.9-22.4 32.4-.3.5-.7.7-1.1.7zm274.6-50.5l.8-.9-.9.8c-20.4-17.7-43.8-30.3-69.6-37.3-.6-.2-1-.8-.9-1.5.2-.6.8-1.1 1.5-.9 26.1 7.2 49.8 19.9 70.5 37.8l-.6 1.1-.8.9zM406.3 410.8c-.3 0-.6-.1-.8-.3-.5-.5-.5-1.2 0-1.7 13.7-14.2 30.1-25 48.8-31.9 14.8-5.5 30.2-8.3 45.8-8.3 30.5 0 60.3 10.7 83.9 30.3.5.4.6 1.2.2 1.7-.4.5-1.2.6-1.7.2-23.3-19.3-52.6-29.8-82.5-29.8-15.3 0-30.5 2.7-45 8.1-18.3 6.8-34.4 17.3-47.9 31.3-.2.2-.5.4-.8.4z" />
	<path fill="white"
		d="M289.2 417.7c13.6 0 26 .5 37.2 1.4 11.2.9 21.8 2.1 32 3.6 10.1 1.5 20 3.8 29.7 6.8l-5.4 50.3c-10.6-.6-20.9-1.1-30.8-1.4-10-.3-19.9-.5-29.9-.7-10-.1-20.4-.2-31.3-.2-13 0-23.8 1.4-32.4 4.1s-15.5 7.8-20.6 15.2c-5.1 7.4-8.8 18-11.1 31.7-2.3 13.8-3.4 31.4-3.4 52.8 0 26 1.7 46.4 5 61.2 3.3 14.8 8.9 25.3 16.8 31.5 7.9 6.2 18.4 9.3 31.7 9.3 9.1 0 17.4-.9 24.9-2.7 7.6-1.8 14.5-4.3 20.9-7.5 6.3-3.2 12.2-6.3 17.7-9.3l7.3 32.6c-4.5 6.3-11.3 13.1-20.2 20.4-8.9 7.3-19.7 13.5-32.4 18.6-12.7 5.1-27.2 7.7-43.5 7.7-23.6 0-42.8-5.6-57.8-16.8-15-11.2-25.9-28.8-32.9-52.8-7-24-10.4-55.2-10.4-93.6 0-40.8 4.5-73 13.4-96.6 8.9-23.6 23.6-40.4 44-50.6 20.1-10 47.3-15 81.5-15zm109.7 138.7v180.4h-51.2l-9.5-47.6-6.3-12.7V556.4h67zM534.5 424v312.8h-68.9V424h68.9zM670.5 424v233.9c0 7.6 2.1 13.3 6.3 17.2 4.2 3.9 10.3 5.9 18.1 5.9h109.3l3.2 52.1c-21.5 2.4-43.9 3.9-67.3 4.3-23.4.5-46.8.7-70 .7-22.7 0-39.8-6.1-51.5-18.4-11.6-12.2-17.5-27.9-17.5-46.9V424h69.4z" />
	<path fill="white"
		d="M757.4 397.4s53.2-17.7 84-42.6c8.2-7.9 12.1-19.6 4.7-28.3-19.9-23.3-113.1-61.8-195.2-71l-35.5 71s159.2-9.6 177.4 17.7c14.3 21.4-35.4 53.2-35.4 53.2zM242.6 397.4s-53.2-17.7-84-42.6c-8.2-7.9-12.1-19.6-4.7-28.3 19.9-23.3 113.1-61.8 195.2-71l35.5 71s-159.2-9.6-177.4 17.7c-14.3 21.4 35.4 53.2 35.4 53.2zM500 344.2l-7.4-29.7c-6.4-25.4-26.2-45.3-51.6-51.6l-29.7-7.4 29.7-7.4c25.4-6.4 45.3-26.2 51.6-51.6l7.4-29.7 7.4 29.7c6.4 25.4 26.2 45.3 51.6 51.6l29.7 7.4-29.7 7.4c-25.4 6.4-45.3 26.2-51.6 51.6l-7.4 29.7z" />
</svg>